# xmcd CD database file
#
# Track frame offsets:
#	150
#	31475
#	53565
#	67690
#	87267
#	114500
#	127395
#	132377
#	137842
#	142542
#	146485
#	165550
#	183707
#	206352
#	213320
#	215705
#	219770
#
# Disc length: 3044 seconds
#
# Revision: 0
# Processed by: cddbd v1.5.2PL0 Copyright (c) Steve Scherf et al.
# Submitted via: CDex 1.60beta1-cs1
#
DISCID=fe0be211
DTITLE=Ralph Towner - Anthem
DYEAR=2001
DGENRE=Jazz
TTITLE0=Solitary Woman
TTITLE1=Anthem
TTITLE2=Haunted
TTITLE3=The Lutemaker
TTITLE4=Simone
TTITLE5=Gloria's Step
TTITLE6=Four Comets I
TTITLE7=Four Comets II
TTITLE8=Four Comets III
TTITLE9=Four Comets IV
TTITLE10=Raffish
TTITLE11=Very Late
TTITLE12=The Prowler
TTITLE13=Three Comments I
TTITLE14=Three Comments II
TTITLE15=Three Comments III
TTITLE16=Goodbye, Pork-Pie Hat
EXTD=YEAR: 2001
EXTT0=
EXTT1=
EXTT2=
EXTT3=
EXTT4=
EXTT5=
EXTT6=
EXTT7=
EXTT8=
EXTT9=
EXTT10=
EXTT11=
EXTT12=
EXTT13=
EXTT14=
EXTT15=
EXTT16=
PLAYORDER=
